<svg xmlns="http://www.w3.org/2000/svg" viewBox="0 0 75.45 51.33"><defs><style>.cls-1{fill:#2b2b2b;}</style></defs><g id="Capa_2" data-name="Capa 2"><g id="Capa_1-2" data-name="Capa 1"><path class="cls-1" d="M7.68,32.37,9.4,28.89H21.9V25.64A18.53,18.53,0,0,1,27.3,12.4,21.15,21.15,0,0,1,42.43,6.5h.08l0-6.5A27.48,27.48,0,0,0,22.71,7.8,24.8,24.8,0,0,0,15.6,22.39h-11A4.6,4.6,0,0,0,0,27.29a25.72,25.72,0,0,0,25.63,24H42.52v-6.5H25.64A19.23,19.23,0,0,1,7.68,32.37Z"/><path class="cls-1" d="M39.81,15.87H49.6L58,43.52H57.3l8.35-27.65h9.8l-13,34.92H52.84Z"/><path class="cls-1" d="M36.53,25.66H34.11L32,18.81h.16l-2.07,6.85H27.7L30.93,17H33.3Z"/></g></g></svg>