<svg xmlns="http://www.w3.org/2000/svg" viewBox="0 0 276.01 74.07"><defs><style>.cls-1{fill:#2b2b2b;}</style></defs><g id="Capa_2" data-name="Capa 2"><g id="Capa_1-2" data-name="Capa 1"><path class="cls-1" d="M12.1,74.07V60.4h1.68l.35,2.23V74.07Zm4.48-4.24a3.23,3.23,0,0,1-1.73-.44,2.84,2.84,0,0,1-1.1-1.32,5.69,5.69,0,0,1-.38-2.21h.76A2,2,0,0,0,14.44,67a2,2,0,0,0,.8.73,2.3,2.3,0,0,0,2.23-.08,2.56,2.56,0,0,0,.94-1A3.47,3.47,0,0,0,18.78,65a3.8,3.8,0,0,0-.32-1.62,2.49,2.49,0,0,0-.88-1A2.22,2.22,0,0,0,16.34,62a2.3,2.3,0,0,0-1.1.27,2,2,0,0,0-.8.79,2.35,2.35,0,0,0-.31,1.26h-.76A5.29,5.29,0,0,1,13.82,62a3.06,3.06,0,0,1,2.84-1.82,3.8,3.8,0,0,1,2,.58,4.13,4.13,0,0,1,1.54,1.66,6,6,0,0,1,0,5.21,4.27,4.27,0,0,1-1.57,1.66A4,4,0,0,1,16.58,69.83Z"/><path class="cls-1" d="M23.39,69.58V60.36h2v9.22Zm1.51-4.07a9.52,9.52,0,0,1,.39-3,3.87,3.87,0,0,1,1.06-1.75,2.31,2.31,0,0,1,1.54-.57,3.38,3.38,0,0,1,.47,0,3.34,3.34,0,0,1,.43.1l-.06,2a4.32,4.32,0,0,0-.54-.1,3.61,3.61,0,0,0-.53-.05,2,2,0,0,0-1.25.39,2.25,2.25,0,0,0-.74,1.11,5.46,5.46,0,0,0-.25,1.78Z"/><path class="cls-1" d="M34,69.83a4.67,4.67,0,0,1-2.24-.54,3.92,3.92,0,0,1-1.59-1.61A5.45,5.45,0,0,1,29.62,65a5.52,5.52,0,0,1,.59-2.71,3.86,3.86,0,0,1,1.59-1.61A4.67,4.67,0,0,1,34,60.14a4.61,4.61,0,0,1,2.24.54,3.89,3.89,0,0,1,1.58,1.61A5.64,5.64,0,0,1,38.44,65a5.56,5.56,0,0,1-.58,2.68,4,4,0,0,1-1.58,1.61A4.61,4.61,0,0,1,34,69.83Zm0-1.77a2.27,2.27,0,0,0,1.27-.36,2.31,2.31,0,0,0,.85-1,4.16,4.16,0,0,0,.3-1.67,3.79,3.79,0,0,0-.6-2.31,2,2,0,0,0-1.7-.79A2.18,2.18,0,0,0,32,63.3a4.28,4.28,0,0,0-.3,1.7,3.63,3.63,0,0,0,.61,2.27A2,2,0,0,0,34,68.06Z"/><path class="cls-1" d="M39.8,61.76V60.4h6v1.36ZM44,69.83a3.42,3.42,0,0,1-1.45-.3,2.41,2.41,0,0,1-1-.91,2.82,2.82,0,0,1-.39-1.54V57.93h2V67c0,.81.39,1.21,1.15,1.21a3.27,3.27,0,0,0,.7-.08,5.92,5.92,0,0,0,.77-.24l.29,1.44a8.67,8.67,0,0,1-1,.35A3.58,3.58,0,0,1,44,69.83Z"/><path class="cls-1" d="M51.58,69.83a3.9,3.9,0,0,1-2.14-.61,4.31,4.31,0,0,1-1.54-1.7A5.36,5.36,0,0,1,47.33,65a5.56,5.56,0,0,1,.56-2.61,4.19,4.19,0,0,1,1.54-1.66,4.15,4.15,0,0,1,2.15-.58,3.77,3.77,0,0,1,1.87.44,3.48,3.48,0,0,1,1.26,1.18,4.45,4.45,0,0,1,.65,1.67,6,6,0,0,1,0,1.94H49V64.24h5l-.43.28a4.54,4.54,0,0,0,0-1,2.76,2.76,0,0,0-.29-.88,1.73,1.73,0,0,0-.6-.66,1.86,1.86,0,0,0-1-.24,2.06,2.06,0,0,0-1.25.37,2.29,2.29,0,0,0-.77,1,3.62,3.62,0,0,0-.25,1.39v.82a3.89,3.89,0,0,0,.25,1.46,2.19,2.19,0,0,0,.74,1,2.27,2.27,0,0,0,2.44,0,1.53,1.53,0,0,0,.61-1h2.06a3.42,3.42,0,0,1-.67,1.57,3.49,3.49,0,0,1-1.34,1A4.38,4.38,0,0,1,51.58,69.83Z"/><path class="cls-1" d="M61.45,69.83a4,4,0,0,1-2.12-.6,4.33,4.33,0,0,1-1.59-1.69,5.21,5.21,0,0,1-.6-2.56,5.37,5.37,0,0,1,.6-2.64,4.18,4.18,0,0,1,3.71-2.2,3.92,3.92,0,0,1,1.54.28,3.56,3.56,0,0,1,1.14.74,3.81,3.81,0,0,1,.76,1,4.19,4.19,0,0,1,.37,1.17l-2.06.08a2.13,2.13,0,0,0-.62-1.07A1.62,1.62,0,0,0,61.43,62a1.92,1.92,0,0,0-1.08.32,2.2,2.2,0,0,0-.83,1A4,4,0,0,0,59.2,65a4.24,4.24,0,0,0,.29,1.65,2.36,2.36,0,0,0,.81,1,2,2,0,0,0,1.13.35,1.83,1.83,0,0,0,1.34-.44,1.63,1.63,0,0,0,.43-1.19h2.06a3.46,3.46,0,0,1-.45,1.75,3.2,3.2,0,0,1-1.29,1.26A4.28,4.28,0,0,1,61.45,69.83Z"/><path class="cls-1" d="M66.66,61.76V60.4h6v1.36Zm4.22,8.07a3.39,3.39,0,0,1-1.45-.3,2.35,2.35,0,0,1-1-.91A2.82,2.82,0,0,1,68,67.08V57.93h2V67c0,.81.38,1.21,1.15,1.21a3.17,3.17,0,0,0,.69-.08,5.1,5.1,0,0,0,.77-.24l.3,1.44a8.67,8.67,0,0,1-1,.35A3.63,3.63,0,0,1,70.88,69.83Z"/><path class="cls-1" d="M78.61,69.83a4.68,4.68,0,0,1-2.25-.54,3.92,3.92,0,0,1-1.59-1.61A5.56,5.56,0,0,1,74.18,65a5.63,5.63,0,0,1,.59-2.71,3.86,3.86,0,0,1,1.59-1.61,4.94,4.94,0,0,1,4.49,0,3.87,3.87,0,0,1,1.57,1.61A5.63,5.63,0,0,1,83,65a5.56,5.56,0,0,1-.59,2.68,3.93,3.93,0,0,1-1.57,1.61A4.64,4.64,0,0,1,78.61,69.83Zm-.06-1.77a2.23,2.23,0,0,0,2.12-1.39A4.16,4.16,0,0,0,81,65a3.79,3.79,0,0,0-.6-2.31,2,2,0,0,0-1.69-.79,2.34,2.34,0,0,0-1.28.35,2.25,2.25,0,0,0-.85,1,4.1,4.1,0,0,0-.31,1.7,3.7,3.7,0,0,0,.61,2.27A2,2,0,0,0,78.55,68.06Z"/><path class="cls-1" d="M85.55,69.58V60.36h2v9.22Zm1.51-4.07a9.52,9.52,0,0,1,.39-3,3.88,3.88,0,0,1,1.07-1.75,2.31,2.31,0,0,1,1.54-.57,3.48,3.48,0,0,1,.47,0,3.77,3.77,0,0,1,.43.1l-.06,2a4.16,4.16,0,0,0-.55-.1,3.37,3.37,0,0,0-.52-.05,2,2,0,0,0-1.25.39,2.33,2.33,0,0,0-.75,1.11,5.76,5.76,0,0,0-.24,1.78Z"/><path class="cls-1" d="M95.44,69.83a4,4,0,0,1-1.94-.41,2.81,2.81,0,0,1-1.16-1.07A2.77,2.77,0,0,1,92,66.92a2.33,2.33,0,0,1,.46-1.48,2.65,2.65,0,0,1,1.29-.87,5.7,5.7,0,0,1,1.94-.29,9.19,9.19,0,0,1,1.42.11,11.21,11.21,0,0,1,1.36.33v1.21a6.9,6.9,0,0,0-1.19-.3,7.46,7.46,0,0,0-1.2-.1,2.7,2.7,0,0,0-1.37.32,1.13,1.13,0,0,0-.55,1.07,1.27,1.27,0,0,0,.44,1,2,2,0,0,0,1.39.4A2.28,2.28,0,0,0,97.15,68a2.45,2.45,0,0,0,.8-.8,1.89,1.89,0,0,0,.28-.94h.48A4.22,4.22,0,0,1,98.34,68a3.18,3.18,0,0,1-1.11,1.32A3,3,0,0,1,95.44,69.83Zm3-.25-.25-2.18V63.65a2.29,2.29,0,0,0-.43-1.53,1.8,1.8,0,0,0-1.4-.49,2.68,2.68,0,0,0-1,.17,1.33,1.33,0,0,0-.65.48,1.31,1.31,0,0,0-.23.78H92.31a2.62,2.62,0,0,1,.5-1.68,2.89,2.89,0,0,1,1.41-.94,7,7,0,0,1,2.18-.3,5.05,5.05,0,0,1,2,.38,2.89,2.89,0,0,1,1.35,1.16,3.81,3.81,0,0,1,.49,2v5.86Z"/><path class="cls-1" d="M111.36,69.83a3.78,3.78,0,0,1-2.09-.61,4.32,4.32,0,0,1-1.51-1.7,6.18,6.18,0,0,1,0-5.12,4.12,4.12,0,0,1,1.46-1.67,3.67,3.67,0,0,1,2-.59,3.22,3.22,0,0,1,1.77.49,3.15,3.15,0,0,1,1.15,1.44,5.86,5.86,0,0,1,.41,2.31h-.67a2.57,2.57,0,0,0-.31-1.31,2.09,2.09,0,0,0-.82-.82,2.27,2.27,0,0,0-2.32.08,2.47,2.47,0,0,0-.86,1,3.63,3.63,0,0,0-.32,1.57,3.87,3.87,0,0,0,.32,1.62,2.5,2.5,0,0,0,.86,1,2.11,2.11,0,0,0,2.29.08,2.26,2.26,0,0,0,.83-.85,2.43,2.43,0,0,0,.33-1.29h.67a5.73,5.73,0,0,1-.44,2.37A3.21,3.21,0,0,1,113,69.35,2.81,2.81,0,0,1,111.36,69.83Zm2.9-.25-.37-2.25V56.56h2v13Z"/><path class="cls-1" d="M119.48,62.17l-1.43-.79a4.85,4.85,0,0,0,1.06-.69,1.94,1.94,0,0,0,.61-.91,1.72,1.72,0,0,1-.87-.38,1.05,1.05,0,0,1-.34-.82,1.16,1.16,0,0,1,.41-.9,1.51,1.51,0,0,1,1-.36,1.44,1.44,0,0,1,.88.27,1.73,1.73,0,0,1,.56.69,2.26,2.26,0,0,1,.2.94,2.73,2.73,0,0,1-.58,1.66A4.48,4.48,0,0,1,119.48,62.17Z"/><path class="cls-1" d="M126.82,69.83a4,4,0,0,1-1.94-.41,2.84,2.84,0,0,1-1.17-1.07,2.77,2.77,0,0,1-.39-1.43,2.4,2.4,0,0,1,.46-1.48,2.72,2.72,0,0,1,1.3-.87,5.7,5.7,0,0,1,1.94-.29,9.29,9.29,0,0,1,1.42.11,11.06,11.06,0,0,1,1.35.33v1.21a6.56,6.56,0,0,0-1.18-.3,7.46,7.46,0,0,0-1.2-.1,2.7,2.7,0,0,0-1.37.32,1.13,1.13,0,0,0-.55,1.07,1.27,1.27,0,0,0,.44,1,2,2,0,0,0,1.38.4,2.29,2.29,0,0,0,1.22-.32,2.32,2.32,0,0,0,.79-.8,1.79,1.79,0,0,0,.28-.94h.49a4.22,4.22,0,0,1-.38,1.79,3.09,3.09,0,0,1-1.1,1.32A3,3,0,0,1,126.82,69.83Zm3-.25-.26-2.18V63.65a2.29,2.29,0,0,0-.42-1.53,1.8,1.8,0,0,0-1.4-.49,2.68,2.68,0,0,0-1,.17,1.28,1.28,0,0,0-.65.48,1.24,1.24,0,0,0-.23.78h-2.24a2.69,2.69,0,0,1,.5-1.68,3,3,0,0,1,1.42-.94,7,7,0,0,1,2.18-.3,5.05,5.05,0,0,1,2,.38,2.89,2.89,0,0,1,1.35,1.16,3.9,3.9,0,0,1,.49,2v5.86Z"/><path class="cls-1" d="M134.82,69.58V60.4h1.78l.25,1.9v7.28Zm6.36,0V64.2a2.37,2.37,0,0,0-.52-1.67,1.86,1.86,0,0,0-1.4-.56,2.1,2.1,0,0,0-1.26.39,2.47,2.47,0,0,0-.84,1.16,5,5,0,0,0-.31,1.89h-.69a8.18,8.18,0,0,1,.44-2.91,3.68,3.68,0,0,1,1.25-1.76,3.17,3.17,0,0,1,1.93-.6,3.32,3.32,0,0,1,1.88.51,3.06,3.06,0,0,1,1.16,1.41,5.41,5.41,0,0,1,.4,2.14v5.38Z"/><path class="cls-1" d="M147.57,58.58a1.28,1.28,0,0,1-.94-.32,1.18,1.18,0,0,1-.35-.89,1.16,1.16,0,0,1,.35-.88,1.53,1.53,0,0,1,1.87,0,1.15,1.15,0,0,1,.34.88,1.18,1.18,0,0,1-.34.89A1.28,1.28,0,0,1,147.57,58.58Zm-1,11V60.36h2v9.22Z"/><path class="cls-1" d="M152.28,69.58V60.4h1.78l.21,1.64a3.34,3.34,0,0,1,1.21-1.42,3.23,3.23,0,0,1,1.76-.48,3.3,3.3,0,0,1,1.88.51,3.06,3.06,0,0,1,1.16,1.41,5.24,5.24,0,0,1,.4,2.14v5.38h-2V64.2a2.37,2.37,0,0,0-.52-1.67,1.86,1.86,0,0,0-1.4-.56,2.1,2.1,0,0,0-1.26.39,2.47,2.47,0,0,0-.84,1.16,5,5,0,0,0-.31,1.89v4.17Zm12.6,0V64.2a2.33,2.33,0,0,0-.54-1.67A1.84,1.84,0,0,0,163,62a1.91,1.91,0,0,0-1.67.85,4.32,4.32,0,0,0-.6,2.51h-.87a9.53,9.53,0,0,1,.26-2.37,4.63,4.63,0,0,1,.75-1.61,3,3,0,0,1,1.17-.92,3.82,3.82,0,0,1,1.5-.29,3.32,3.32,0,0,1,1.88.51,3,3,0,0,1,1.15,1.41,5.24,5.24,0,0,1,.4,2.14v5.38Z"/><path class="cls-1" d="M172.83,69.83a4,4,0,0,1-1.94-.41,2.84,2.84,0,0,1-1.17-1.07,2.77,2.77,0,0,1-.39-1.43,2.33,2.33,0,0,1,.46-1.48,2.74,2.74,0,0,1,1.29-.87,5.8,5.8,0,0,1,1.95-.29,9.39,9.39,0,0,1,1.42.11,11.06,11.06,0,0,1,1.35.33v1.21a6.56,6.56,0,0,0-1.18-.3,7.46,7.46,0,0,0-1.2-.1,2.76,2.76,0,0,0-1.38.32,1.14,1.14,0,0,0-.54,1.07,1.26,1.26,0,0,0,.43,1,2.08,2.08,0,0,0,1.39.4,2.29,2.29,0,0,0,1.22-.32,2.41,2.41,0,0,0,.79-.8,1.79,1.79,0,0,0,.28-.94h.49a4.22,4.22,0,0,1-.38,1.79,3.16,3.16,0,0,1-1.1,1.32A3,3,0,0,1,172.83,69.83Zm3-.25-.26-2.18V63.65a2.24,2.24,0,0,0-.43-1.53,1.77,1.77,0,0,0-1.39-.49,2.64,2.64,0,0,0-1,.17,1.28,1.28,0,0,0-.65.48,1.24,1.24,0,0,0-.23.78h-2.24a2.69,2.69,0,0,1,.5-1.68,2.92,2.92,0,0,1,1.42-.94,7,7,0,0,1,2.18-.3,5.09,5.09,0,0,1,2,.38,2.89,2.89,0,0,1,1.35,1.16,3.9,3.9,0,0,1,.48,2v5.86Z"/><path class="cls-1" d="M180.83,69.58v-13h2v13Z"/><path class="cls-1" d="M189.7,69.83a6.12,6.12,0,0,1-2.26-.37,3.07,3.07,0,0,1-1.43-1,2.74,2.74,0,0,1-.51-1.62h1.89a1.27,1.27,0,0,0,.59,1.08,2.78,2.78,0,0,0,1.49.35,2.43,2.43,0,0,0,.92-.16,1.51,1.51,0,0,0,.64-.43.88.88,0,0,0,.24-.6.83.83,0,0,0-.31-.67,2.87,2.87,0,0,0-1-.45L188,65.24a4.12,4.12,0,0,1-1.69-1,2.21,2.21,0,0,1,.44-3.37,4.82,4.82,0,0,1,2.76-.71,4.29,4.29,0,0,1,2.7.75,2.37,2.37,0,0,1,1,1.89h-1.92a1,1,0,0,0-.49-.77,2.26,2.26,0,0,0-1.26-.28,1.9,1.9,0,0,0-1.2.33.93.93,0,0,0-.44.74c0,.49.42.85,1.26,1.1l2.08.76a4.42,4.42,0,0,1,1.69.93,1.9,1.9,0,0,1,.6,1.44,2.21,2.21,0,0,1-.48,1.36,3.38,3.38,0,0,1-1.34,1A4.61,4.61,0,0,1,189.7,69.83Z"/><path class="cls-1" d="M204.41,67.36l3.26-10h2.14l-4.25,12.22h-2.12l-4.19-12.22h2.15l3.22,10Z"/><path class="cls-1" d="M213.93,69.83a4,4,0,0,1-1.94-.41,2.81,2.81,0,0,1-1.16-1.07,2.77,2.77,0,0,1-.39-1.43,2.33,2.33,0,0,1,.46-1.48,2.69,2.69,0,0,1,1.29-.87,5.7,5.7,0,0,1,1.94-.29,9.19,9.19,0,0,1,1.42.11,10.77,10.77,0,0,1,1.36.33v1.21a6.67,6.67,0,0,0-1.19-.3,7.28,7.28,0,0,0-1.2-.1,2.7,2.7,0,0,0-1.37.32,1.13,1.13,0,0,0-.55,1.07,1.27,1.27,0,0,0,.44,1,2,2,0,0,0,1.39.4,2.25,2.25,0,0,0,1.21-.32,2.45,2.45,0,0,0,.8-.8,1.89,1.89,0,0,0,.28-.94h.48a4.22,4.22,0,0,1-.37,1.79,3.11,3.11,0,0,1-1.11,1.32A3,3,0,0,1,213.93,69.83Zm3-.25-.25-2.18V63.65a2.29,2.29,0,0,0-.43-1.53,1.8,1.8,0,0,0-1.4-.49,2.68,2.68,0,0,0-1,.17,1.37,1.37,0,0,0-.65.48,1.31,1.31,0,0,0-.23.78H210.8a2.62,2.62,0,0,1,.5-1.68,2.89,2.89,0,0,1,1.41-.94,7,7,0,0,1,2.18-.3,5.05,5.05,0,0,1,2,.38,2.89,2.89,0,0,1,1.35,1.16,3.81,3.81,0,0,1,.49,2v5.86Z"/><path class="cls-1" d="M221.93,69.58v-13h2v13Z"/><path class="cls-1" d="M230.78,69.83a3.93,3.93,0,0,1-2.15-.61,4.29,4.29,0,0,1-1.53-1.7,5.25,5.25,0,0,1-.58-2.53,5.56,5.56,0,0,1,.57-2.61,4,4,0,0,1,3.69-2.24,3.8,3.8,0,0,1,1.87.44,3.48,3.48,0,0,1,1.26,1.18,4.63,4.63,0,0,1,.65,1.67,6.61,6.61,0,0,1,0,1.94h-6.46V64.24h5l-.44.28a4,4,0,0,0-.05-1,2.75,2.75,0,0,0-.28-.88,1.84,1.84,0,0,0-.61-.66,1.86,1.86,0,0,0-1-.24,2.06,2.06,0,0,0-1.25.37,2.27,2.27,0,0,0-.76,1,3.62,3.62,0,0,0-.26,1.39v.82a4.09,4.09,0,0,0,.25,1.46,2.26,2.26,0,0,0,.74,1,2.29,2.29,0,0,0,2.45,0,1.48,1.48,0,0,0,.6-1h2.06a3.3,3.3,0,0,1-.66,1.57,3.57,3.57,0,0,1-1.34,1A4.45,4.45,0,0,1,230.78,69.83Z"/><path class="cls-1" d="M237.23,69.58V60.4H239l.26,1.9v7.28Zm6.36,0V64.2a2.33,2.33,0,0,0-.53-1.67,1.83,1.83,0,0,0-1.4-.56,2.09,2.09,0,0,0-1.25.39,2.55,2.55,0,0,0-.85,1.16,5.2,5.2,0,0,0-.3,1.89h-.69A8.18,8.18,0,0,1,239,62.5a3.68,3.68,0,0,1,1.25-1.76,3.15,3.15,0,0,1,1.93-.6,3.32,3.32,0,0,1,1.88.51,3.06,3.06,0,0,1,1.16,1.41,5.41,5.41,0,0,1,.39,2.14v5.38Z"/><path class="cls-1" d="M252,69.83a4,4,0,0,1-2.12-.6,4.33,4.33,0,0,1-1.59-1.69,5.21,5.21,0,0,1-.6-2.56,5.37,5.37,0,0,1,.6-2.64,4.18,4.18,0,0,1,3.71-2.2,3.92,3.92,0,0,1,1.54.28,3.59,3.59,0,0,1,1.89,1.78,3.91,3.91,0,0,1,.38,1.17l-2.06.08a2.13,2.13,0,0,0-.62-1.07,1.62,1.62,0,0,0-1.15-.41,2,2,0,0,0-1.09.32,2.19,2.19,0,0,0-.82,1,4,4,0,0,0-.32,1.71,4.24,4.24,0,0,0,.29,1.65,2.36,2.36,0,0,0,.81,1,2,2,0,0,0,1.13.35,1.83,1.83,0,0,0,1.34-.44,1.67,1.67,0,0,0,.43-1.19h2.06a3.46,3.46,0,0,1-.45,1.75A3.2,3.2,0,0,1,254,69.37,4.28,4.28,0,0,1,252,69.83Z"/><path class="cls-1" d="M259.54,58.58a1.29,1.29,0,0,1-.94-.32,1.18,1.18,0,0,1-.34-.89,1.15,1.15,0,0,1,.34-.88,1.53,1.53,0,0,1,1.87,0,1.15,1.15,0,0,1,.34.88,1.18,1.18,0,0,1-.34.89A1.28,1.28,0,0,1,259.54,58.58Zm-1,11V60.36h2v9.22Z"/><path class="cls-1" d="M267,69.83a4,4,0,0,1-1.94-.41,2.84,2.84,0,0,1-1.17-1.07,2.77,2.77,0,0,1-.39-1.43,2.4,2.4,0,0,1,.46-1.48,2.74,2.74,0,0,1,1.29-.87,5.8,5.8,0,0,1,2-.29,9.39,9.39,0,0,1,1.42.11,11.06,11.06,0,0,1,1.35.33v1.21a6.56,6.56,0,0,0-1.18-.3,7.46,7.46,0,0,0-1.2-.1,2.76,2.76,0,0,0-1.38.32,1.14,1.14,0,0,0-.54,1.07,1.26,1.26,0,0,0,.43,1,2.08,2.08,0,0,0,1.39.4,2.29,2.29,0,0,0,1.22-.32,2.41,2.41,0,0,0,.79-.8,1.79,1.79,0,0,0,.28-.94h.49a4.22,4.22,0,0,1-.38,1.79,3.16,3.16,0,0,1-1.1,1.32A3,3,0,0,1,267,69.83Zm3-.25-.26-2.18V63.65a2.24,2.24,0,0,0-.43-1.53,1.77,1.77,0,0,0-1.39-.49,2.64,2.64,0,0,0-1,.17,1.28,1.28,0,0,0-.65.48,1.24,1.24,0,0,0-.23.78h-2.24a2.69,2.69,0,0,1,.5-1.68,2.92,2.92,0,0,1,1.42-.94,7,7,0,0,1,2.18-.3,5.09,5.09,0,0,1,2,.38,2.89,2.89,0,0,1,1.35,1.16,3.9,3.9,0,0,1,.48,2v5.86Z"/><path class="cls-1" d="M7.68,32.84,9.4,29.36H21.9V26.11a18.53,18.53,0,0,1,5.4-13.24A21.19,21.19,0,0,1,42.43,7h.08l0-6.5a27.52,27.52,0,0,0-19.82,7.8A24.8,24.8,0,0,0,15.6,22.86h-11A4.6,4.6,0,0,0,0,27.76a25.72,25.72,0,0,0,25.63,24H42.52V45.3H25.64A19.22,19.22,0,0,1,7.68,32.84Z"/><path class="cls-1" d="M39.81,16.34H49.6L58,44H57.3l8.35-27.65h9.8l-13,34.92H52.84Z"/><path class="cls-1" d="M91.37,52.27a16.17,16.17,0,0,1-7.51-1.56,11,11,0,0,1-4.52-4.13A10.66,10.66,0,0,1,77.83,41a8.76,8.76,0,0,1,1.75-5.56,10.52,10.52,0,0,1,4.94-3.39A22.9,22.9,0,0,1,92.09,31a32,32,0,0,1,5.38.43,47.17,47.17,0,0,1,5,1.15v5a27.26,27.26,0,0,0-4.31-1,29.15,29.15,0,0,0-4.4-.36,9.89,9.89,0,0,0-5,1.12A4,4,0,0,0,86.9,41a4.33,4.33,0,0,0,1.59,3.35q1.58,1.39,5,1.4A8.23,8.23,0,0,0,98,44.64a8,8,0,0,0,2.79-2.88,7.14,7.14,0,0,0,1-3.46h2a17.19,17.19,0,0,1-1.4,7,12,12,0,0,1-4.16,5.09A11.64,11.64,0,0,1,91.37,52.27Zm11.44-1-1.08-8.49v-14q0-3.68-1.49-5.44c-1-1.17-2.68-1.76-5.06-1.76a9.41,9.41,0,0,0-3.56.61,5.1,5.1,0,0,0-2.32,1.75,4.59,4.59,0,0,0-.81,2.75H79.2a10.37,10.37,0,0,1,1.9-6.46,11,11,0,0,1,5.5-3.67,27.76,27.76,0,0,1,8.58-1.17,19.89,19.89,0,0,1,7.92,1.45,11.29,11.29,0,0,1,5.26,4.49A14.54,14.54,0,0,1,110.23,29V51.26Z"/><path class="cls-1" d="M119.63,51.26V16.34h7.42l1.08,6.92v28Zm24,0V30.82c0-2.6-.63-4.55-1.87-5.87a6.43,6.43,0,0,0-4.9-2,7.62,7.62,0,0,0-4.52,1.4,9.23,9.23,0,0,0-3.08,4.23,19.4,19.4,0,0,0-1.11,7h-2.81A32.5,32.5,0,0,1,127,24.32a14.19,14.19,0,0,1,4.79-6.75,12.08,12.08,0,0,1,7.27-2.23,12.8,12.8,0,0,1,7.22,1.92,11.84,11.84,0,0,1,4.36,5.42,21.05,21.05,0,0,1,1.45,8.14V51.26Z"/><path class="cls-1" d="M166,9.94a5.41,5.41,0,0,1-3.87-1.32A4.79,4.79,0,0,1,160.71,5a4.84,4.84,0,0,1,1.38-3.62,6.18,6.18,0,0,1,7.71,0A4.79,4.79,0,0,1,171.22,5a4.74,4.74,0,0,1-1.42,3.65A5.43,5.43,0,0,1,166,9.94Zm-4.24,41.32V16.2h8.49V51.26Z"/><path class="cls-1" d="M180.53,51.26V16.34h7.41l.94,6a12.43,12.43,0,0,1,4.57-5.24A12.25,12.25,0,0,1,200,15.34a12.82,12.82,0,0,1,7.22,1.92,11.76,11.76,0,0,1,4.35,5.42A21,21,0,0,1,213,30.82V51.26h-8.5V30.82c0-2.6-.62-4.55-1.87-5.87a6.43,6.43,0,0,0-4.89-2,7.6,7.6,0,0,0-4.52,1.4,9.16,9.16,0,0,0-3.08,4.23,19.38,19.38,0,0,0-1.12,7V51.26Zm47.45,0V30.82c0-2.6-.63-4.55-1.88-5.87a6.41,6.41,0,0,0-4.89-2,7,7,0,0,0-6,3.09q-2.2,3.11-2.2,9.36h-3.53a36.36,36.36,0,0,1,1-9.34,16.65,16.65,0,0,1,2.91-6.19,11.61,11.61,0,0,1,4.45-3.46,14.2,14.2,0,0,1,5.65-1.09,12.71,12.71,0,0,1,7.18,1.92,11.88,11.88,0,0,1,4.38,5.42,20.86,20.86,0,0,1,1.47,8.14V51.26Z"/><path class="cls-1" d="M257.14,52.27a16.15,16.15,0,0,1-7.5-1.56,11,11,0,0,1-4.52-4.13A10.66,10.66,0,0,1,243.61,41a8.81,8.81,0,0,1,1.74-5.56,10.6,10.6,0,0,1,5-3.39A22.87,22.87,0,0,1,257.86,31a31.79,31.79,0,0,1,5.38.43,47.35,47.35,0,0,1,5.06,1.15v5a27.39,27.39,0,0,0-4.32-1,28.92,28.92,0,0,0-4.39-.36,9.93,9.93,0,0,0-5,1.12A4,4,0,0,0,252.68,41a4.35,4.35,0,0,0,1.58,3.35q1.59,1.39,5,1.4a8.26,8.26,0,0,0,4.47-1.15,8,8,0,0,0,2.79-2.88,7.14,7.14,0,0,0,.95-3.46h2a17,17,0,0,1-1.41,7A11.83,11.83,0,0,1,264,50.36,11.62,11.62,0,0,1,257.14,52.27Zm11.45-1-1.08-8.49v-14q0-3.68-1.49-5.44T261,21.53a9.46,9.46,0,0,0-3.57.61,5.16,5.16,0,0,0-2.32,1.75,4.59,4.59,0,0,0-.81,2.75H245a10.37,10.37,0,0,1,1.91-6.46,10.9,10.9,0,0,1,5.49-3.67A27.83,27.83,0,0,1,261,15.34a20,20,0,0,1,7.92,1.45,11.27,11.27,0,0,1,5.25,4.49A14.45,14.45,0,0,1,276,29V51.26Z"/><path class="cls-1" d="M36.53,26.14H34.11L32,19.29h.16l-2.07,6.85H27.7l3.23-8.66H33.3Z"/></g></g></svg>